<svg xmlns="http://www.w3.org/2000/svg" id="SvgjsSvg324022" width="4096" height="1146.1921769064443" version="1.1" xmlns:xlink="http://www.w3.org/1999/xlink" xmlns:svgjs="http://svgjs.com/svgjs"><defs id="SvgjsDefs324023"></defs><g id="SvgjsG324024" transform="translate(328, 328) scale(34.4)" opacity="1"><defs id="SvgjsDefs153241"></defs><g id="SvgjsG153242" transform="scale(0.21691973969631237)" opacity="1"><g id="SvgjsG153243" class="1nJFTuDgG" transform="translate(-9.656584099017355, -99.24863718652401) scale(2.3715325492598325)" light-content="false" fill="#29292e"><path fill="none" stroke="#29292e" stroke-width=".5" stroke-miterlimit="10" d="M4.9 66.3l11.7-12.4 5.8-2.8 6.4-9 2.3 4.3 1.8 1 6.3 6.5 3.2 1.6 1.4-1.8.5-.5 3.4-9.9 5.8 9.2 2.4.7 3.4 1.9 3.7 7.4 5.3 3.8 4.7 3"></path><path fill="none" stroke="#29292e" stroke-width=".5" stroke-miterlimit="10" d="M53.5 52.5l2-1.4 2.8-2.6 5.6-5.8 6.1 5.8 7.3-3.4 5.7 6 7 5.7 5 1.7"></path></g><g id="SvgjsG153244" class="text" transform="translate(352.0170665269775, 40.076354408610655) scale(1)" light-content="false" fill="#29292e"><path d="M-78.44 -25.93C-78.44 -29.15 -79.54 -31.7 -81.76 -33.61C-83.9 -35.4 -87.08 -36.3 -91.3 -36.3L-108.62 -36.3L-108.62 -35.78L-107.95 -35.78C-107.05 -35.78 -106.27 -35.5 -105.61 -34.93C-104.96 -34.36 -104.63 -33.64 -104.63 -32.78L-104.63 -3.79C-104.66 -2.89 -105 -2.12 -105.64 -1.48C-106.28 -0.84 -107.05 -0.52 -107.95 -0.52L-108.62 -0.52L-108.62 0L-92.85 0L-92.85 -0.52L-93.53 -0.52C-94.43 -0.52 -95.21 -0.84 -95.86 -1.48C-96.52 -2.12 -96.85 -2.89 -96.85 -3.79L-96.85 -34.12L-93.37 -34.12C-91.33 -34.12 -89.72 -33.44 -88.52 -32.08C-87.33 -30.71 -86.74 -28.78 -86.74 -26.29C-86.74 -23.84 -87.43 -21.85 -88.81 -20.33C-90.4 -18.57 -92.49 -17.72 -95.08 -17.79L-95.08 -17.27C-93.15 -15.99 -90.95 -15.35 -88.5 -15.35C-87.7 -15.35 -86.84 -15.51 -85.91 -15.82C-82.72 -16.82 -80.55 -18.69 -79.37 -21.42C-78.75 -22.84 -78.44 -24.34 -78.44 -25.93Z M-55.41 -34.02L-53.86 -34.02C-52.06 -33.99 -50.59 -33.34 -49.45 -32.08C-48.31 -30.81 -47.74 -28.76 -47.74 -25.93C-47.74 -25.51 -47.81 -24.94 -47.94 -24.22C-48.36 -22.11 -49.16 -20.59 -50.36 -19.65C-51.55 -18.72 -52.92 -18.25 -54.48 -18.25L-56.09 -18.25L-56.09 -17.74C-54.7 -17.53 -53.53 -16.37 -52.56 -14.26C-50.35 -9.49 -48.91 -6.53 -48.26 -5.39C-47.11 -3.39 -45.55 -1.99 -43.56 -1.19C-41.57 -0.4 -39.08 0 -36.07 0L-30.99 0L-30.99 -0.52C-32.33 -0.55 -33.46 -0.85 -34.36 -1.4C-36.15 -2.54 -38.92 -6.1 -42.65 -12.08C-44.18 -14.47 -45.94 -15.99 -47.94 -16.65C-45.18 -16.92 -43.07 -18.03 -41.62 -19.97C-40.17 -21.9 -39.44 -23.92 -39.44 -26.01C-39.44 -28.1 -39.78 -29.79 -40.48 -31.09C-41.17 -32.39 -42.1 -33.4 -43.28 -34.12C-45.59 -35.58 -48.43 -36.3 -51.78 -36.3L-69.57 -36.3L-69.57 -35.78L-68.9 -35.78C-68 -35.78 -67.23 -35.46 -66.59 -34.82C-65.95 -34.18 -65.61 -33.41 -65.58 -32.52L-65.58 -3.73C-65.61 -3.15 -65.77 -2.61 -66.04 -2.13C-66.7 -1.05 -67.65 -0.52 -68.9 -0.52L-69.57 -0.52L-69.57 0L-53.8 0L-53.8 -0.52L-54.48 -0.52C-55.38 -0.52 -56.15 -0.84 -56.79 -1.48C-57.43 -2.12 -57.76 -2.89 -57.8 -3.79L-57.8 -34.02L-57.64 -34.02Z M-25.75 -0.52L-26.42 -0.52L-26.42 0L-10.66 0L-10.71 -0.52L-11.33 -0.52C-12.23 -0.52 -13.01 -0.84 -13.67 -1.48C-14.32 -2.12 -14.65 -2.89 -14.65 -3.79L-14.65 -32.57C-14.65 -33.47 -14.32 -34.23 -13.67 -34.85C-13.01 -35.47 -12.23 -35.78 -11.33 -35.78L-10.71 -35.78L-10.66 -36.3L-26.42 -36.3L-26.42 -35.78L-25.75 -35.78C-24.85 -35.78 -24.08 -35.47 -23.44 -34.85C-22.8 -34.23 -22.46 -33.47 -22.43 -32.57L-22.43 -3.79C-22.46 -2.89 -22.8 -2.12 -23.44 -1.48C-24.08 -0.84 -24.85 -0.52 -25.75 -0.52Z M45.71 -0.52C44.78 -0.52 43.96 -0.81 43.25 -1.4C42.54 -1.99 42.1 -2.78 41.93 -3.79L37.52 -37.03L37.05 -37.03L21.6 -10.58L5.52 -37.03L5.06 -37.03L0.75 -3.79C0.61 -2.78 0.19 -1.99 -0.52 -1.4C-1.23 -0.81 -2.07 -0.52 -3.03 -0.52L-3.86 -0.52L-3.86 0L6.98 0L6.98 -0.47L6.2 -0.47C5.61 -0.47 5.11 -0.7 4.69 -1.17C4.28 -1.63 4.11 -2.14 4.17 -2.7L6.2 -21.37L19.53 1.04L20.04 1.04C20.08 -0.66 20.74 -2.58 22.01 -4.72L31.76 -21.52L33.79 -2.7C33.86 -2.14 33.68 -1.64 33.27 -1.19C32.85 -0.74 32.35 -0.5 31.76 -0.47L30.99 -0.47L30.99 0L46.54 0L46.54 -0.52Z M73.69 -37.03C67.45 -37.03 62.49 -35.33 58.81 -31.95C55.13 -28.56 53.29 -23.96 53.29 -18.15C53.29 -12.34 55.13 -7.74 58.81 -4.36C62.49 -0.97 67.45 0.73 73.69 0.73C79.93 0.73 84.89 -0.97 88.58 -4.36C92.26 -7.74 94.1 -12.34 94.1 -18.15C94.1 -23.96 92.26 -28.56 88.58 -31.95C84.89 -35.33 79.93 -37.03 73.69 -37.03ZM73.67 -1.45C70 -1.45 67.11 -2.95 64.98 -5.94C62.85 -8.93 61.79 -13 61.79 -18.15C61.79 -23.3 62.85 -27.37 64.98 -30.36C67.11 -33.35 70 -34.85 73.67 -34.85C77.33 -34.85 80.24 -33.35 82.38 -30.36C84.52 -27.37 85.59 -23.3 85.59 -18.15C85.59 -13 84.52 -8.93 82.38 -5.94C80.24 -2.95 77.33 -1.45 73.67 -1.45Z M105.2 0.52C106.23 0.52 107.12 0.16 107.87 -0.57C108.61 -1.3 108.98 -2.18 108.98 -3.22C108.98 -4.25 108.61 -5.14 107.87 -5.89C107.12 -6.63 106.23 -7 105.2 -7C104.16 -7 103.28 -6.63 102.55 -5.89C101.83 -5.14 101.46 -4.25 101.46 -3.22C101.46 -2.18 101.83 -1.3 102.55 -0.57C103.28 0.16 104.16 0.52 105.2 0.52Z"></path></g><g id="SvgjsG153245" class="text" transform="translate(344.6317862755369, 65.45145222484891) scale(1)" light-content="false" fill="#29292e"><path d="M-74.38 -0.17L-74.62 -0.17L-74.62 0L-70.69 0L-70.71 -0.17L-70.94 -0.17C-71.25 -0.17 -71.52 -0.26 -71.75 -0.44C-71.98 -0.62 -72.1 -0.84 -72.11 -1.09L-72.11 -9.3C-72.09 -9.55 -71.96 -9.77 -71.74 -9.94C-71.51 -10.11 -71.25 -10.2 -70.94 -10.2L-70.71 -10.2L-70.71 -10.37L-74.62 -10.37L-74.62 -10.2L-74.39 -10.2C-74.07 -10.2 -73.79 -10.11 -73.56 -9.92C-73.33 -9.74 -73.22 -9.52 -73.22 -9.27L-73.22 -1.11C-73.22 -0.85 -73.33 -0.63 -73.56 -0.45C-73.79 -0.27 -74.06 -0.17 -74.38 -0.17Z M-68.57 -0.17L-68.81 -0.17L-68.81 0L-61.79 0L-60.84 -2.47L-61.01 -2.47C-61.2 -2.06 -61.38 -1.72 -61.57 -1.47C-61.76 -1.22 -62.04 -1 -62.41 -0.81C-62.78 -0.63 -63.23 -0.54 -63.76 -0.54L-66.46 -0.54L-66.46 -9.27C-66.46 -9.52 -66.36 -9.74 -66.16 -9.92C-65.95 -10.11 -65.71 -10.2 -65.44 -10.2L-65.23 -10.2L-65.23 -10.37L-68.81 -10.37L-68.81 -10.2L-68.6 -10.2C-68.33 -10.2 -68.09 -10.11 -67.88 -9.92C-67.68 -9.74 -67.58 -9.52 -67.56 -9.27L-67.56 -1.09C-67.58 -0.84 -67.68 -0.62 -67.87 -0.44C-68.06 -0.26 -68.29 -0.17 -68.57 -0.17Z M-55.17 -0.57C-54.87 -0.31 -54.44 -0.1 -53.87 0.03C-53.31 0.17 -52.74 0.24 -52.18 0.24C-51.33 0.24 -50.6 -0.03 -50.01 -0.57C-49.42 -1.11 -49.12 -1.77 -49.12 -2.56C-49.12 -3.34 -49.38 -3.95 -49.91 -4.39L-53.41 -7.09C-53.86 -7.46 -54.08 -7.89 -54.08 -8.39C-54.08 -8.89 -53.88 -9.3 -53.48 -9.62C-53.07 -9.94 -52.56 -10.1 -51.94 -10.1C-51.32 -10.1 -50.84 -9.96 -50.5 -9.7C-50.17 -9.43 -50 -9.06 -50 -8.57L-49.81 -8.57L-49.85 -10.46L-50.42 -10.46C-50.88 -10.56 -51.41 -10.61 -52.01 -10.61C-52.61 -10.61 -53.13 -10.5 -53.57 -10.28C-54.01 -10.05 -54.36 -9.75 -54.61 -9.37C-54.86 -8.99 -54.98 -8.57 -54.98 -8.12C-54.98 -7.33 -54.7 -6.7 -54.15 -6.22L-50.69 -3.56C-50.28 -3.19 -50.07 -2.73 -50.07 -2.17C-50.07 -1.61 -50.28 -1.16 -50.71 -0.8C-51.14 -0.45 -51.73 -0.28 -52.49 -0.28C-53.22 -0.28 -53.78 -0.48 -54.19 -0.87C-54.6 -1.27 -54.81 -1.78 -54.81 -2.4C-54.81 -2.51 -54.8 -2.61 -54.79 -2.71L-55 -2.71C-55.15 -2.28 -55.22 -1.84 -55.22 -1.42C-55.22 -0.99 -55.2 -0.71 -55.17 -0.57Z M-41.49 -10.61C-42.55 -10.61 -43.53 -10.39 -44.42 -9.93C-45.31 -9.48 -46.01 -8.83 -46.54 -8C-47.06 -7.17 -47.32 -6.3 -47.32 -5.38C-47.32 -4.47 -47.17 -3.67 -46.86 -2.99C-46.56 -2.31 -46.14 -1.73 -45.62 -1.26C-45.09 -0.79 -44.48 -0.42 -43.76 -0.16C-43.05 0.11 -42.22 0.24 -41.29 0.24C-40.36 0.24 -39.44 0.01 -38.56 -0.44C-37.67 -0.9 -36.96 -1.54 -36.44 -2.37C-35.92 -3.2 -35.65 -4.14 -35.65 -5.19C-35.65 -6.23 -35.92 -7.17 -36.44 -8C-36.96 -8.83 -37.67 -9.48 -38.56 -9.93C-39.44 -10.39 -40.42 -10.61 -41.49 -10.61ZM-41.5 -0.28C-42.79 -0.28 -43.87 -0.73 -44.74 -1.65C-45.61 -2.57 -46.04 -3.75 -46.04 -5.19C-46.04 -6.63 -45.61 -7.8 -44.74 -8.72C-43.87 -9.64 -42.79 -10.1 -41.5 -10.1C-40.21 -10.1 -39.12 -9.64 -38.25 -8.72C-37.37 -7.8 -36.93 -6.63 -36.93 -5.19C-36.93 -3.75 -37.37 -2.57 -38.25 -1.65C-39.12 -0.73 -40.21 -0.28 -41.5 -0.28Z M-33.87 -0.17L-34.11 -0.17L-34.11 0L-27.1 0L-26.15 -2.47L-26.32 -2.47C-26.5 -2.06 -26.69 -1.72 -26.88 -1.47C-27.07 -1.22 -27.35 -1 -27.72 -0.81C-28.09 -0.63 -28.54 -0.54 -29.07 -0.54L-31.76 -0.54L-31.76 -9.27C-31.76 -9.52 -31.66 -9.74 -31.46 -9.92C-31.26 -10.11 -31.02 -10.2 -30.74 -10.2L-30.54 -10.2L-30.54 -10.37L-34.11 -10.37L-34.11 -10.2L-33.91 -10.2C-33.63 -10.2 -33.39 -10.11 -33.19 -9.92C-32.99 -9.74 -32.88 -9.52 -32.87 -9.27L-32.87 -1.09C-32.88 -0.84 -32.98 -0.62 -33.17 -0.44C-33.36 -0.26 -33.6 -0.17 -33.87 -0.17Z M-19.19 -10.61C-20.25 -10.61 -21.23 -10.39 -22.12 -9.93C-23.01 -9.48 -23.71 -8.83 -24.24 -8C-24.76 -7.17 -25.02 -6.3 -25.02 -5.38C-25.02 -4.47 -24.87 -3.67 -24.56 -2.99C-24.26 -2.31 -23.84 -1.73 -23.32 -1.26C-22.8 -0.79 -22.18 -0.42 -21.46 -0.16C-20.75 0.11 -19.92 0.24 -18.99 0.24C-18.06 0.24 -17.15 0.01 -16.26 -0.44C-15.37 -0.9 -14.66 -1.54 -14.14 -2.37C-13.62 -3.2 -13.35 -4.14 -13.35 -5.19C-13.35 -6.23 -13.62 -7.17 -14.14 -8C-14.66 -8.83 -15.37 -9.48 -16.26 -9.93C-17.15 -10.39 -18.12 -10.61 -19.19 -10.61ZM-19.2 -0.28C-20.49 -0.28 -21.57 -0.73 -22.44 -1.65C-23.31 -2.57 -23.74 -3.75 -23.74 -5.19C-23.74 -6.63 -23.31 -7.8 -22.44 -8.72C-21.57 -9.64 -20.49 -10.1 -19.2 -10.1C-17.91 -10.1 -16.82 -9.64 -15.95 -8.72C-15.07 -7.8 -14.63 -6.63 -14.63 -5.19C-14.63 -3.75 -15.07 -2.57 -15.95 -1.65C-16.82 -0.73 -17.91 -0.28 -19.2 -0.28Z M-6.99 -0.17L-7.23 -0.17L-7.23 0L-0.22 0L0.73 -2.47L0.56 -2.47C0.37 -2.06 0.17 -1.72 -0.02 -1.47C-0.21 -1.22 -0.48 -1 -0.85 -0.81C-1.21 -0.63 -1.66 -0.54 -2.19 -0.54L-4.9 -0.54L-4.9 -4.93L-1.89 -4.93C-1.79 -4.92 -1.69 -4.89 -1.6 -4.86C-1.36 -4.74 -1.24 -4.52 -1.24 -4.2L-1.24 -3.98L-1.05 -3.98L-1.05 -6.4L-1.24 -6.4L-1.24 -6.17C-1.24 -5.96 -1.3 -5.79 -1.42 -5.65C-1.54 -5.51 -1.71 -5.45 -1.94 -5.45L-4.9 -5.45L-4.9 -9.84L-1.31 -9.84C-1.05 -9.84 -0.84 -9.75 -0.68 -9.58C-0.52 -9.4 -0.44 -9.2 -0.44 -8.95L-0.44 -8.7L-0.25 -8.68L-0.25 -10.65C-0.35 -10.6 -0.58 -10.54 -0.94 -10.48C-1.3 -10.41 -1.71 -10.37 -2.19 -10.37L-7.23 -10.37L-7.23 -10.2L-6.99 -10.2C-6.72 -10.2 -6.48 -10.11 -6.28 -9.94C-6.09 -9.77 -5.99 -9.55 -5.99 -9.3L-5.99 -1.09C-6 -0.84 -6.1 -0.62 -6.29 -0.44C-6.48 -0.26 -6.72 -0.17 -6.99 -0.17Z M13.35 -5.19C13.35 -6.25 13.13 -7.17 12.68 -7.95C12.23 -8.74 11.59 -9.33 10.75 -9.75C9.92 -10.16 8.93 -10.37 7.8 -10.37L2.03 -10.37L2.03 -10.2L2.24 -10.2C2.52 -10.2 2.75 -10.11 2.94 -9.94C3.13 -9.77 3.23 -9.54 3.24 -9.27L3.24 -1.11C3.23 -0.85 3.13 -0.63 2.95 -0.45C2.76 -0.27 2.53 -0.17 2.26 -0.17L2.03 -0.17L2.03 0L7.8 0C9.51 0 10.86 -0.46 11.86 -1.39C12.86 -2.32 13.35 -3.58 13.35 -5.19ZM4.36 -9.85L7.8 -9.85C9.13 -9.85 10.18 -9.44 10.95 -8.6C11.72 -7.76 12.11 -6.63 12.11 -5.19C12.11 -3.75 11.72 -2.61 10.95 -1.77C10.18 -0.94 9.13 -0.52 7.8 -0.52L4.36 -0.52Z M30.04 -10.2L30.04 -10.37L27.06 -10.37L27.06 -10.2L27.32 -10.2C27.55 -10.2 27.74 -10.13 27.9 -9.99C28.06 -9.85 28.14 -9.67 28.15 -9.46L28.15 -3.65C28.15 -2.59 27.84 -1.75 27.21 -1.14C26.58 -0.53 25.75 -0.22 24.7 -0.22C23.66 -0.22 22.85 -0.55 22.28 -1.19C21.71 -1.84 21.43 -2.72 21.43 -3.84L21.43 -9.46C21.43 -9.66 21.51 -9.84 21.67 -9.98C21.83 -10.13 22.03 -10.2 22.26 -10.2L22.52 -10.2L22.52 -10.37L19.23 -10.37L19.23 -10.2L19.49 -10.2C19.72 -10.2 19.92 -10.13 20.08 -9.98C20.24 -9.84 20.32 -9.66 20.32 -9.46L20.32 -3.63C20.32 -2.43 20.71 -1.49 21.48 -0.8C22.25 -0.1 23.31 0.24 24.64 0.24C25.98 0.24 27.03 -0.11 27.8 -0.8C28.56 -1.5 28.95 -2.45 28.95 -3.65L28.95 -9.47C28.96 -9.61 29 -9.73 29.07 -9.84C29.23 -10.08 29.46 -10.2 29.78 -10.2Z M43.21 -10.2L43.5 -10.2L43.5 -10.37L40.23 -10.37L40.23 -10.2L40.53 -10.2C40.78 -10.2 41 -10.12 41.19 -9.95C41.37 -9.78 41.47 -9.58 41.5 -9.33L41.5 -2.16L32.52 -10.61L32.33 -10.63L32.37 -10.35C32.45 -9.8 32.49 -9.17 32.49 -8.47L32.49 -1.07C32.49 -0.82 32.4 -0.61 32.21 -0.43C32.03 -0.26 31.8 -0.17 31.54 -0.17L31.25 -0.17L31.25 0L34.51 0L34.51 -0.17L34.22 -0.17C33.95 -0.17 33.73 -0.26 33.54 -0.43C33.36 -0.61 33.27 -0.82 33.27 -1.07L33.27 -8.28L42.26 0.24L42.41 0.24L42.38 -0.07C42.3 -0.67 42.26 -1.3 42.26 -1.97L42.26 -9.33C42.27 -9.58 42.37 -9.78 42.55 -9.95C42.74 -10.12 42.95 -10.2 43.21 -10.2Z M45.3 -0.17L45.06 -0.17L45.06 0L48.98 0L48.96 -0.17L48.74 -0.17C48.43 -0.17 48.16 -0.26 47.93 -0.44C47.7 -0.62 47.58 -0.84 47.56 -1.09L47.56 -9.3C47.59 -9.55 47.71 -9.77 47.94 -9.94C48.16 -10.11 48.43 -10.2 48.74 -10.2L48.96 -10.2L48.96 -10.37L45.06 -10.37L45.06 -10.2L45.28 -10.2C45.6 -10.2 45.88 -10.11 46.11 -9.92C46.34 -9.74 46.46 -9.52 46.46 -9.27L46.46 -1.11C46.46 -0.85 46.34 -0.63 46.11 -0.45C45.88 -0.27 45.61 -0.17 45.3 -0.17Z M52.05 -1.23C53.07 -0.26 54.46 0.23 56.22 0.24C57.24 0.24 58.17 0.04 59.02 -0.35C59.88 -0.75 60.53 -1.3 60.98 -1.99L61.17 -4.36L61.01 -4.36C60.96 -3.43 60.7 -2.66 60.26 -2.04C59.82 -1.42 59.26 -0.97 58.58 -0.7C57.91 -0.43 57.12 -0.29 56.22 -0.29C55.33 -0.29 54.54 -0.5 53.86 -0.9C53.18 -1.3 52.66 -1.87 52.3 -2.6C51.94 -3.33 51.76 -4.19 51.76 -5.19C51.76 -6.71 52.16 -7.91 52.96 -8.78C53.75 -9.66 54.84 -10.1 56.21 -10.1C58.57 -10.1 60 -9.1 60.49 -7.12L60.65 -7.12L60.27 -9.58C59.74 -9.9 59.11 -10.15 58.39 -10.34C57.66 -10.52 56.94 -10.61 56.22 -10.61C54.46 -10.61 53.07 -10.13 52.05 -9.16C51.03 -8.19 50.52 -6.87 50.52 -5.19C50.52 -3.52 51.03 -2.2 52.05 -1.23Z M68.89 -10.61C67.82 -10.61 66.84 -10.39 65.96 -9.93C65.07 -9.48 64.36 -8.83 63.84 -8C63.31 -7.17 63.05 -6.3 63.05 -5.38C63.05 -4.47 63.21 -3.67 63.51 -2.99C63.82 -2.31 64.23 -1.73 64.76 -1.26C65.28 -0.79 65.9 -0.42 66.61 -0.16C67.33 0.11 68.15 0.24 69.09 0.24C70.02 0.24 70.93 0.01 71.82 -0.44C72.7 -0.9 73.41 -1.54 73.93 -2.37C74.46 -3.2 74.72 -4.14 74.72 -5.19C74.72 -6.23 74.46 -7.17 73.93 -8C73.41 -8.83 72.7 -9.48 71.82 -9.93C70.93 -10.39 69.95 -10.61 68.89 -10.61ZM68.88 -0.28C67.59 -0.28 66.51 -0.73 65.64 -1.65C64.77 -2.57 64.33 -3.75 64.33 -5.19C64.33 -6.63 64.77 -7.8 65.64 -8.72C66.51 -9.64 67.59 -10.1 68.88 -10.1C70.17 -10.1 71.25 -9.64 72.13 -8.72C73 -7.8 73.44 -6.63 73.44 -5.19C73.44 -3.75 73 -2.57 72.13 -1.65C71.25 -0.73 70.17 -0.28 68.88 -0.28Z"></path></g></g></g></svg>